<?xml version="1.0" encoding="UTF-8"?>
<svg xmlns="http://www.w3.org/2000/svg" version="1.1" viewBox="0 0 1987.9 346">
  <defs>
    <style>
      .cls-1 {
        fill-rule: evenodd;
      }

      .cls-1, .cls-2 {
        fill: #fff;
      }
    </style>
  </defs>
  <!-- Generator: Adobe Illustrator 28.7.3, SVG Export Plug-In . SVG Version: 1.2.0 Build 164)  -->
  <g>
    <g id="Layer_1">
      <g id="Layer_1-2" data-name="Layer_1">
        <g>
          <path class="cls-2" d="M561.3,194.6c-1,13.1-5.8,23.5-14.6,31.1s-20.3,11.3-34.6,11.3-28-5.3-37-15.8c-9-10.6-13.5-25-13.5-43.4v-7.5c0-11.8,2.1-22.1,6.2-31.1,4.1-8.9,10.1-15.8,17.8-20.6,7.7-4.8,16.6-7.2,26.8-7.2s25.5,3.8,34.1,11.3c8.6,7.5,13.6,18.2,14.9,31.8h-25.2c-.6-7.9-2.8-13.6-6.6-17.2-3.8-3.6-9.5-5.3-17.2-5.3s-14.7,3-18.8,9c-4.2,6-6.3,15.4-6.4,28v9.2c0,13.2,2,22.9,6,29s10.3,9.1,18.9,9.1,13.6-1.8,17.4-5.3c3.8-3.6,6-9.1,6.6-16.5h25.2,0Z"/>
          <path class="cls-2" d="M599.9,154.4c6.4-7.7,14.5-11.6,24.3-11.6,19.7,0,29.7,11.4,30,34.3v58.2h-24.3v-57.5c0-5.2-1.1-9.1-3.4-11.5-2.2-2.5-6-3.7-11.2-3.7s-12.3,2.7-15.5,8.2v64.6h-24.3V106.4h24.3v48h.1Z"/>
          <path class="cls-2" d="M725.1,235.4c-1.1-2.2-1.9-4.9-2.4-8.1-5.9,6.6-13.5,9.8-22.9,9.8s-16.3-2.6-22.1-7.7-8.8-11.6-8.8-19.5,3.6-17,10.7-22.2c7.1-5.1,17.5-7.8,30.9-7.8h11.2v-5.2c0-4.2-1.1-7.6-3.2-10.1-2.2-2.5-5.5-3.8-10.2-3.8s-7.3,1-9.6,2.9-3.5,4.6-3.5,8.1h-24.3c0-5.3,1.6-10.1,4.9-14.6,3.2-4.5,7.8-8,13.8-10.5,5.9-2.6,12.6-3.8,20-3.8,11.2,0,20.1,2.8,26.7,8.4,6.6,5.6,9.9,13.5,9.9,23.7v39.4c0,8.6,1.3,15.1,3.6,19.6v1.4h-24.7ZM705,218.5c3.6,0,6.9-.8,9.9-2.4s5.3-3.7,6.7-6.4v-15.6h-9.1c-12.1,0-18.6,4.2-19.4,12.6v1.4c0,3,1,5.5,3.1,7.5s5,2.9,8.7,2.9h0Z"/>
          <path class="cls-2" d="M793.6,122.2v22.3h15.5v17.8h-15.5v45.3c0,3.4.6,5.8,1.9,7.2s3.8,2.2,7.4,2.2,5.1-.2,7.1-.6v18.4c-4.8,1.4-9.7,2.2-14.7,2.2-17,0-25.7-8.6-26-25.8v-48.9h-13.3v-17.8h13.3v-22.3h24.3Z"/>
          <path class="cls-2" d="M861.7,189.1c0-9,1.7-17,5.2-24.1s8.5-12.5,15-16.4,14.1-5.8,22.7-5.8c12.3,0,22.3,3.8,30,11.2s12.1,17.7,13,30.6l.2,6.2c0,13.9-3.9,25.1-11.7,33.5s-18.2,12.6-31.3,12.6-23.5-4.2-31.3-12.6-11.7-19.8-11.7-34.2v-1.1h-.1ZM886,190.8c0,8.6,1.6,15.2,4.9,19.8,3.2,4.6,7.9,6.9,13.9,6.9s10.5-2.3,13.8-6.8,5-11.7,5-21.6-1.7-15-5-19.7-8-7-13.9-7-10.5,2.3-13.8,6.9c-3.2,4.6-4.9,11.8-4.9,21.5h0Z"/>
          <path class="cls-2" d="M985,144.5l.8,10.5c6.5-8.1,15.2-12.2,26.1-12.2s16.8,2.8,21.5,8.5,7.1,14.1,7.2,25.4v58.7h-24.3v-58.1c0-5.1-1.1-8.9-3.4-11.2-2.2-2.3-6-3.5-11.2-3.5s-12,2.9-15.4,8.7v64.1h-24.3v-90.8h23Z"/>
          <path class="cls-2" d="M1198.6,200.1l16.4-87h25.1l-27.1,122.2h-25.3l-19.9-81.8-19.9,81.8h-25.3l-27.1-122.2h25.1l16.5,86.8,20.2-86.8h21.3l20.1,87h0Z"/>
          <path class="cls-2" d="M1275.8,154.4c6.4-7.7,14.5-11.6,24.3-11.6,19.7,0,29.7,11.4,30,34.3v58.2h-24.3v-57.5c0-5.2-1.1-9.1-3.4-11.5-2.2-2.5-6-3.7-11.2-3.7s-12.3,2.7-15.4,8.2v64.6h-24.3V106.4h24.3v48Z"/>
          <path class="cls-2" d="M1400.9,235.4c-1.1-2.2-1.9-4.9-2.4-8.1-5.9,6.6-13.5,9.8-22.9,9.8s-16.3-2.6-22.1-7.7-8.8-11.6-8.8-19.5,3.6-17,10.7-22.2c7.1-5.1,17.4-7.8,30.9-7.8h11.2v-5.2c0-4.2-1.1-7.6-3.2-10.1-2.2-2.5-5.6-3.8-10.2-3.8s-7.3,1-9.6,2.9-3.5,4.6-3.5,8.1h-24.3c0-5.3,1.6-10.1,4.9-14.6,3.2-4.5,7.8-8,13.8-10.5,5.9-2.6,12.6-3.8,20-3.8,11.2,0,20.1,2.8,26.7,8.4,6.6,5.6,9.9,13.5,9.9,23.7v39.4c0,8.6,1.3,15.1,3.6,19.6v1.4h-24.7ZM1380.9,218.5c3.6,0,6.9-.8,9.9-2.4s5.3-3.7,6.7-6.4v-15.6h-9.1c-12.1,0-18.6,4.2-19.4,12.6v1.4c0,3,1,5.5,3.1,7.5s5,2.9,8.7,2.9h.1Z"/>
          <path class="cls-2" d="M1469.5,122.2v22.3h15.5v17.8h-15.5v45.3c0,3.4.6,5.8,1.9,7.2s3.8,2.2,7.4,2.2,5.1-.2,7.1-.6v18.4c-4.8,1.4-9.7,2.2-14.7,2.2-17,0-25.7-8.6-26-25.8v-48.9h-13.3v-17.8h13.3v-22.3h24.3,0Z"/>
          <path class="cls-2" d="M1547.8,210.3c0-3-1.5-5.3-4.4-7s-7.7-3.2-14.1-4.6c-21.6-4.5-32.4-13.7-32.4-27.5s3.3-14.8,10-20.2,15.4-8.1,26.2-8.1,20.8,2.7,27.7,8.1c6.9,5.4,10.4,12.5,10.4,21.1h-24.3c0-3.5-1.1-6.3-3.4-8.6-2.2-2.3-5.7-3.4-10.5-3.4s-7.2.9-9.5,2.8-3.4,4.2-3.4,7.1,1.3,4.9,3.8,6.5c2.6,1.6,6.8,3.1,12.9,4.3s11.1,2.6,15.3,4.1c12.8,4.7,19.2,12.8,19.2,24.4s-3.6,15-10.7,20.1-16.3,7.7-27.5,7.7-14.4-1.4-20.3-4.1-10.5-6.4-13.9-11.2c-3.4-4.7-5-9.8-5-15.3h23c.2,4.3,1.8,7.6,4.8,9.9,3,2.3,6.9,3.4,11.9,3.4s8.2-.9,10.5-2.6c2.4-1.8,3.6-4.1,3.6-6.9h.1Z"/>
          <path class="cls-2" d="M1657.6,210.2h-44.2l-8.4,25.2h-26.8l45.5-122.2h23.3l45.8,122.2h-26.8l-8.5-25.2h0ZM1620.2,189.8h30.6l-15.4-45.8-15.2,45.8h0Z"/>
          <path class="cls-2" d="M1784.4,190.8c0,14-3.2,25.2-9.5,33.6s-14.9,12.6-25.7,12.6-16.6-3.2-22.2-9.6v42.8h-24.3v-125.7h22.5l.8,8.9c5.9-7.1,13.5-10.6,23-10.6s19.9,4.1,26.1,12.4c6.2,8.3,9.3,19.7,9.3,34.2v1.3h0ZM1760.1,189c0-8.4-1.5-15-4.5-19.6s-7.3-6.9-13.1-6.9-12.8,2.9-15.7,8.7v37.2c3,6,8.2,9,15.9,9,11.6,0,17.4-9.5,17.4-28.5h0Z"/>
          <path class="cls-2" d="M1881.2,190.8c0,14-3.2,25.2-9.5,33.6s-14.9,12.6-25.7,12.6-16.6-3.2-22.2-9.6v42.8h-24.3v-125.7h22.5l.8,8.9c5.9-7.1,13.5-10.6,23-10.6s19.9,4.1,26.1,12.4c6.2,8.3,9.3,19.7,9.3,34.2v1.3h0ZM1856.9,189c0-8.4-1.5-15-4.5-19.6s-7.3-6.9-13.1-6.9-12.8,2.9-15.7,8.7v37.2c3,6,8.2,9,15.9,9,11.6,0,17.4-9.5,17.4-28.5h0Z"/>
        </g>
      </g>
      <path class="cls-1" d="M327.3,85.7c-23.4-23.4-54.5-36.3-87.6-36.3-68.3,0-123.8,55.5-123.8,123.8,0,21.8,5.7,43.1,16.5,61.9l-17.6,64.2,65.6-17.2c18.1,9.9,38.4,15.1,59.2,15.1h0c68.2,0,123.8-55.5,123.8-123.8,0-33.1-12.9-64.2-36.2-87.6h0ZM239.8,276.2h0c-18.5,0-36.6-5-52.4-14.3l-3.8-2.2-39,10.2,10.4-38-2.4-3.9c-10.3-16.4-15.7-35.3-15.7-54.8,0-56.7,46.2-102.9,103-102.9,27.5,0,53.3,10.7,72.8,30.2,19.4,19.4,30.1,45.3,30.1,72.8,0,56.7-46.2,102.9-102.9,102.9h0ZM296.2,199.1c-3.1-1.5-18.3-9-21.1-10.1-2.8-1-4.9-1.5-7,1.5-2.1,3.1-8,10.1-9.8,12.1-1.8,2.1-3.6,2.3-6.7.8-3.1-1.5-13.1-4.8-24.9-15.4-9.2-8.2-15.4-18.3-17.2-21.4-1.8-3.1-.2-4.8,1.4-6.3,1.4-1.4,3.1-3.6,4.6-5.4,1.6-1.8,2.1-3.1,3.1-5.2,1-2.1.5-3.9-.3-5.4-.8-1.5-7-16.8-9.5-23-2.5-6-5.1-5.2-7-5.3-1.8,0-3.9-.1-5.9-.1s-5.4.8-8.3,3.9c-2.8,3.1-10.8,10.6-10.8,25.8s11.1,29.9,12.6,32c1.5,2.1,21.8,33.3,52.9,46.7,7.4,3.2,13.1,5.1,17.6,6.5,7.4,2.4,14.2,2,19.5,1.2,5.9-.9,18.3-7.5,20.9-14.7,2.6-7.2,2.6-13.4,1.8-14.7s-2.8-2.1-5.9-3.6h0Z"/>
    </g>
  </g>
</svg>